<svg xmlns="http://www.w3.org/2000/svg" width="48" height="54" viewBox="0 0 48 54">
  <g id="Elipse_16" data-name="Elipse 16" fill="#fff" stroke="#707070" stroke-width="1">
    <ellipse cx="24" cy="27" rx="24" ry="27" stroke="none"/>
    <ellipse cx="24" cy="27" rx="23.5" ry="26.5" fill="none"/>
  </g>
  <g id="Trazado_10" data-name="Trazado 10" transform="translate(37.411 12.913) rotate(90)" fill="#4b3939">
    <path d="M 27.37786674499512 25.91039657592773 L 0.6443920135498047 25.91039657592773 C 1.112584233283997 24.11747169494629 2.581190347671509 18.71567153930664 4.610616207122803 13.37520599365234 C 6.054245948791504 9.576286315917969 7.493256092071533 6.554896354675293 8.887685775756836 4.394966602325439 C 10.5562162399292 1.810456395149231 12.1212158203125 0.4999963939189911 13.53920650482178 0.4999963939189911 C 14.96263599395752 0.4999963939189911 16.58082580566406 1.81403636932373 18.34880638122559 4.40562629699707 C 19.82325553894043 6.566936492919922 21.37367630004883 9.589746475219727 22.95698547363281 13.39009666442871 C 25.17549896240234 18.71506881713867 26.83872032165527 24.10085868835449 27.37786674499512 25.91039657592773 Z" stroke="none"/>
    <path d="M 13.53920650482178 0.9999961853027344 C 12.31985569000244 0.9999961853027344 10.85724639892578 2.266786575317383 9.309516906738281 4.663415908813477 C 7.934455871582031 6.792686462402344 6.511726379394531 9.780977249145508 5.080865859985352 13.54529666900635 C 3.256750106811523 18.34417533874512 1.886770248413086 23.19623374938965 1.29387092590332 25.41039657592773 L 26.70492362976074 25.41039657592773 C 26.02555465698242 23.18081283569336 24.4829044342041 18.35163879394531 22.49238586425781 13.5750560760498 C 20.92252540588379 9.807907104492188 19.38884735107422 6.816766738891602 17.93394470214844 4.684736251831055 C 16.28896713256836 2.27415657043457 14.76928615570068 0.9999961853027344 13.53920650482178 0.9999961853027344 M 13.53920650482178 -3.814697265625e-06 C 20.55057525634766 -3.814697265625e-06 28.04549598693848 26.41039657592773 28.04549598693848 26.41039657592773 L -3.814697265625e-06 26.41039657592773 C -3.814697265625e-06 26.41039657592773 6.527835845947266 -3.814697265625e-06 13.53920650482178 -3.814697265625e-06 Z" stroke="none" fill="#707070"/>
  </g>
</svg>
